# xmcd
#
# Track frame offsets:
#	150
#	23585
#	38824
#	61404
#	81266
#	99703
#	120369
#	138694
#	153596
#	182032
#	205759
#	226904
#	244434
#	279879
#	303170
#	325309
#
# Disc length: 4791 seconds
#
# Revision: 3
# Processed by: cddbd v1.5.2PL0 Copyright (c) Steve Scherf et al.
# Submitted via: EZCDAudioConverter 6.0.0.1
#
DISCID=d612b510
DTITLE=Various Artist - Akella Presents - Modern Electric Blues - vol.26  CD2  New!
DYEAR=2013
DGENRE=Blues
TTITLE0=JIM SUHLER and MONKEY BEAT - Years Of Tears
TTITLE1=STEVE MILLER BAND - Tramp
TTITLE2=JOHN CAMPBELL - Wild Streak
TTITLE3=The BEAT DADDYS - She Goes Down
TTITLE4=The ROCKY ATHAS GROUP - Bluesville
TTITLE5=SCOTT ELLISON - Where You Stand With Me
TTITLE6=LEFTHAND FREDDY - Have To Make A Change
TTITLE7=BRENDAN CROKER - This Man
TTITLE8=TOM PRINCIPATO - Stranger's Eyes
TTITLE9=ZED MITCHELL - I'm A River
TTITLE10=COYOTE KINGS - Love For The Blues
TTITLE11=DANNY BRYANT - Follow On
TTITLE12=STEVE TRACY and The CRAWLING KINGSNAKES - Sliced To Shreds
TTITLE13=BOWES and MORLEY - Come Together In The Morning
TTITLE14=BRANT PARKER - High  Class Woman
TTITLE15=KRIS POHLMANN - The Blues Inside
EXTD=
EXTT0=
EXTT1=
EXTT2=
EXTT3=
EXTT4=
EXTT5=
EXTT6=
EXTT7=
EXTT8=
EXTT9=
EXTT10=
EXTT11=
EXTT12=
EXTT13=
EXTT14=
EXTT15=
PLAYORDER=
